<?xml version="1.0" encoding="utf-8"?><svg xmlns="http://www.w3.org/2000/svg" xmlns:xlink="http://www.w3.org/1999/xlink" version="1.1" x="0" y="0" width="100%" height="100%" viewBox="0 0 158 85" xml:space="preserve" class="style0"><style type="text/css"><![CDATA[.style0{background:#ffffff;shape-rendering:auto;}.style1{opacity:0.65;fill:#0076ff;shape-rendering:auto;}.style2{opacite:0.8;fill:#ffffff;shape-rendering:auto;}.style3{opacity:0.65;font-size:40px;font-family:Verdana, Tahoma, Arial, Helvetica, sans-serif;fill:#000000;shape-rendering:auto;}]]></style><circle cx="80" cy="42.4" r="40"  class="style2"/><path transform="matrix(1 0 0 1 40 -3)" d="M-7.105427357601002e-14 45.3 C-7.105427357601002e-14 67.4 17.9 85.3 40 85.3 C62.091500000000046 85.3 80 67.4 80 45.3 C79.99999999999991 23.2 62.1 5.3 40 5.3 C17.908666666666925 5.3 -0 23.2 -0 45.3 Z M63.94566666666676 48 L74.56616666666696 48 C74.28816666666694 51.7 73.4 55.3 72 58.7 L62.6325000000002 58.7 C63.3475000000001 55.3 63.8 51.7 63.9 48 Z M16.05433333333324 42.7 L5.433999999999962 42.7 C5.711999999999982 39 6.6 35.4 8 32 L17.367500000000284 32 C16.65250000000014 35.4 16.2 38.9 16.1 42.7 Z M58.609666666666776 42.7 L42.666666666666764 42.7 L42.666666666666764 32 L57.169666666666906 32 C57.97083333333352 35.4 58.5 39 58.6 42.7 Z M42.666666666666764 26.7 L42.666666666666764 11.1 C43.8825000000002 11.4 45.1 12 46.3 12.8 C48.4841666666666 14.4 50.6 16.8 52.4 19.8 C53.637500000000024 21.9 54.7 24.2 55.6 26.7 L42.666666666666764 26.7 Z M33.73099999999997 12.8 C34.9128333333335 12 36.1 11.4 37.3 11.1 L37.333333333333506 26.7 L24.394666666667 26.7 C25.290166666666657 24.2 26.4 21.9 27.6 19.8 C29.39666666666674 16.8 31.5 14.4 33.7 12.8 Z M37.333333333333506 42.7 L21.390499999999996 42.7 C21.54716666666669 39 22 35.4 22.8 32 L37.333333333333506 32 L37.333333333333506 42.7 Z M5.434166666666847 48 L16.054500000000182 48 C16.201333333333643 51.7 16.7 55.3 17.4 58.7 L7.9906666666668045 58.7 C6.569333333333354 55.3 5.7 51.7 5.4 48 Z M37.333333333333506 48 L37.333333333333506 58.7 L22.83033333333328 58.7 C22.02933333333342 55.3 21.5 51.7 21.4 48 L37.333333333333506 48 Z M37.333333333333506 79.6 C36.11766666666674 79.3 34.9 78.7 33.7 77.8 C31.515666666666682 76.3 29.4 73.9 27.6 70.9 C26.362499999999947 68.8 25.3 66.5 24.4 64 L37.333333333333506 64 L37.333333333333506 79.6 Z M46.268999999999984 77.8 C45.08699999999997 78.7 43.9 79.3 42.7 79.6 L42.666666666666764 64 L55.60550000000014 64 C54.71000000000004 66.5 53.6 68.8 52.4 70.9 C50.603333333333474 73.9 48.5 76.3 46.3 77.8 Z M42.666666666666764 48 L58.609500000000075 48 C58.45283333333352 51.7 58 55.3 57.2 58.7 L42.666666666666764 58.7 L42.666666666666764 48 Z M62.6325000000002 32 L72.00949999999992 32 C73.43083333333357 35.4 74.3 39 74.6 42.7 L63.94566666666676 42.7 C63.79883333333378 38.9 63.3 35.4 62.6 32 Z M61.22983333333328 26.7 C59.67666666666674 21.8 57.5 17.5 55 14 C58.49816666666677 15.7 61.7 18 64.5 20.8 C66.30300000000011 22.6 67.9 24.6 69.2 26.7 L61.22983333333328 26.7 Z M25.0465000000001 14 C22.46800000000004 17.5 20.3 21.8 18.8 26.7 L10.778666666666801 26.7 C12.123499999999915 24.6 13.7 22.6 15.5 20.8 C18.291833333333408 18 21.5 15.7 25 14 Z M18.770166666666704 64 C20.32350000000016 68.9 22.5 73.2 25 76.6 C21.50199999999993 74.9 18.3 72.7 15.5 69.8 C13.697166666666554 68.1 12.1 66.1 10.8 64 L18.770166666666704 64 Z M54.9535000000001 76.6 C57.53199999999995 73.2 59.7 68.9 61.2 64 L69.22150000000008 64 C67.87650000000014 66.1 66.3 68.1 64.5 69.8 C61.70833333333345 72.7 58.5 74.9 55 76.6 Z " class="style1"/><rect y="23" width="160" height="39" class="style2"/><text class="style3"><tspan x="0" y="57">TNTNET</tspan></text></svg>
