<?xml version="1.0" encoding="UTF-8" standalone="no"?>
<svg
   xmlns:xhtml="http://www.w3.org/1999/xhtml"
   xmlns:dc="http://purl.org/dc/elements/1.1/"
   xmlns:cc="http://creativecommons.org/ns#"
   xmlns:rdf="http://www.w3.org/1999/02/22-rdf-syntax-ns#"
   xmlns:svg="http://www.w3.org/2000/svg"
   xmlns="http://www.w3.org/2000/svg"
   xmlns:sodipodi="http://sodipodi.sourceforge.net/DTD/sodipodi-0.dtd"
   xmlns:inkscape="http://www.inkscape.org/namespaces/inkscape"
   version="1.1"
   x="0px"
   y="0px"
   width="160px"
   height="80px"
   viewBox="0 0 160 80"
   enable-background="new 0 0 160 80"
   xml:space="preserve"
   id="svg2985"
   inkscape:version="0.48.4 r9939"
   sodipodi:docname="tntlogo2b-1.svg"
   inkscape:export-filename="/home/tommi/tntnet-homepage/htdocs/tntnet3.png"
   inkscape:export-xdpi="114.42036"
   inkscape:export-ydpi="114.42036"><metadata
     id="metadata3012"><rdf:RDF><cc:Work
         rdf:about=""><dc:format>image/svg+xml</dc:format><dc:type
           rdf:resource="http://purl.org/dc/dcmitype/StillImage" /><dc:title></dc:title></cc:Work></rdf:RDF></metadata><sodipodi:namedview
     pagecolor="#ffffff"
     bordercolor="#666666"
     borderopacity="1"
     objecttolerance="10"
     gridtolerance="10"
     guidetolerance="10"
     inkscape:pageopacity="0"
     inkscape:pageshadow="2"
     inkscape:window-width="1098"
     inkscape:window-height="737"
     id="namedview3010"
     showgrid="false"
     inkscape:zoom="2.8375"
     inkscape:cx="65.522172"
     inkscape:cy="40"
     inkscape:window-x="657"
     inkscape:window-y="0"
     inkscape:window-maximized="0"
     inkscape:current-layer="svg2985" /><defs
     id="defs2987"><style
       id="style2989"> @import url(https://fonts.googleapis.com/css?family=Allerta+Stencil);
</style><xhtml:link
       rel="stylesheet"
       href="http://fonts.googleapis.com/css?family=Allerta+Stencil" /></defs><g
     transform="matrix(1 0 0 1 0 0)"
     type="LAYER"
     name="workspace"
     id="workspace" /><g
     transform="translate(-0.1725,0)"
     type="LAYER"
     name="Layer 01"
     id="Layer 01"
     style="fill:#0077ff;fill-opacity:1;fill-rule:nonzero;stroke:#000000;stroke-opacity:1"><path
       transform="translate(40,-5.3333333)"
       width="79.99999999999999"
       height="80"
       stroke-miterlimit="3"
       d="m 0,45.333333 c 0,22.0915 17.908667,40 40,40 22.0915,0 40,-17.9085 40,-40 C 80,23.242 62.0915,5.3333333 40,5.3333333 17.908667,5.3333333 0,23.242 0,45.333333 z M 63.945667,48 l 10.6205,0 c -0.278,3.683 -1.135334,7.2595 -2.556667,10.666667 l -9.377,0 C 63.3475,55.2955 63.798833,51.717333 63.945667,48 z m -47.891334,-5.333333 -10.620333,0 C 5.712,38.983833 6.5691667,35.407167 7.9905,32 l 9.377,0 c -0.715,3.371167 -1.166333,6.949333 -1.313167,10.666667 z m 42.555334,0 -15.943,0 0,-10.666667 14.503,0 c 0.801166,3.4135 1.283166,6.987833 1.44,10.666667 z m -15.943,-16 0,-15.6115 C 43.8825,11.409 45.087,12.002667 46.269,12.836 c 2.215167,1.561667 4.334333,3.967333 6.128333,6.957167 1.240167,2.066833 2.312667,4.368 3.208,6.873666 l -12.938666,0 z M 33.731,12.835833 c 1.181833,-0.833333 2.3865,-1.427 3.602333,-1.780833 l 0,15.611667 -12.938666,0 c 0.8955,-2.5055 1.968,-4.806667 3.208,-6.873667 1.794,-2.989833 3.913,-5.395667 6.128333,-6.957167 z m 3.602333,29.830834 -15.942833,0 C 21.547167,38.987833 22.029333,35.4135 22.830333,32 l 14.503,0 0,10.666667 z M 5.4341667,48 16.0545,48 c 0.146833,3.717333 0.598167,7.2955 1.313167,10.666667 l -9.3770003,0 C 6.5693333,55.2595 5.7121667,51.683 5.4341667,48 z m 31.8991663,0 0,10.666667 -14.503,0 C 22.029333,55.253333 21.547167,51.678833 21.3905,48 l 15.942833,0 z m 0,31.611667 C 36.117667,79.257833 34.913,78.664 33.731,77.830833 31.515667,76.269167 29.3965,73.863333 27.602667,70.873667 26.3625,68.806667 25.290167,66.5055 24.3945,64 l 12.938833,0 0,15.611667 z M 46.269,77.830833 c -1.182,0.833167 -2.3865,1.427 -3.602333,1.780834 L 42.666667,64 55.6055,64 c -0.8955,2.5055 -1.968,4.806667 -3.208167,6.873667 -1.794,2.989666 -3.913166,5.3955 -6.128333,6.957166 z M 42.666667,48 58.6095,48 c -0.156667,3.678833 -0.638833,7.253333 -1.44,10.666667 l -14.502833,0 0,-10.666667 z M 62.6325,32 l 9.377,0 c 1.421333,3.407167 2.278667,6.983833 2.556667,10.666667 l -10.6205,0 C 63.798833,38.949333 63.3475,35.371167 62.6325,32 z m -1.402667,-5.333333 c -1.553166,-4.896834 -3.698,-9.191167 -6.276333,-12.619 3.544667,1.695 6.754833,3.968 9.5595,6.772666 1.79,1.789834 3.3635,3.744834 4.7085,5.846334 l -7.991667,0 z M 25.0465,14.047667 c -2.5785,3.427833 -4.723,7.722166 -6.276333,12.619 l -7.9915,0 c 1.344833,-2.1015 2.9185,-4.0565 4.708333,-5.846334 2.804833,-2.804833 6.015,-5.077666 9.5595,-6.772666 z M 18.770167,64 c 1.553333,4.896833 3.698,9.191167 6.2765,12.619167 -3.544667,-1.695 -6.754834,-3.968 -9.5595,-6.772834 C 13.697167,68.0565 12.1235,66.1015 10.778667,64 l 7.9915,0 z M 54.9535,76.619167 C 57.532,73.191333 59.676667,68.896833 61.229833,64 l 7.991667,0 c -1.345,2.1015 -2.9185,4.0565 -4.7085,5.846333 -2.804667,2.804834 -6.015,5.077834 -9.5595,6.772834 z"
       id="path2993"
       style="fill:#0077ff;fill-opacity:1;fill-rule:nonzero;stroke:#000000;stroke-width:0.16666666999999999;stroke-miterlimit:3;stroke-opacity:1"
       inkscape:connector-curvature="0" /></g><g
     transform="translate(0,-0.0877193)"
     type="LAYER"
     name="untitled layer"
     id="untitled layer"><text
       type="textBox"
       transform="translate(0,13)"
       width="73.33333333333331"
       height="40.8"
       stroke-miterlimit="3"
       font-size="40"
       text-align="left"
       id="text2996"
       style="font-size:40px;text-align:left;text-anchor:start;fill:#000000;stroke:none;font-family:Allerta Stencil"><tspan
         x="0"
         y="40.799999"
         id="tspan2998">TNTNET</tspan></text>
<path
       transform="translate(1.1403509,21.052632)"
       width="157.01754385964907"
       height="38.07017543859649"
       stroke-miterlimit="3"
       d="m 0,0 157.01754,0 0,38.070175 L 0,38.070175 0,0 z"
       id="path3000"
       inkscape:connector-curvature="0"
       style="fill:#ffffff;stroke:none" /><text
       type="textBox"
       width="114.21052631578948"
       height="40.8"
       stroke-miterlimit="3"
       font-size="40"
       text-align="left"
       id="text3002"
       style="font-size:40px;font-style:normal;font-variant:normal;font-weight:normal;font-stretch:normal;text-align:start;line-height:125%;writing-mode:lr-tb;text-anchor:start;fill:#000000;stroke:none;font-family:FreeSans;-inkscape-font-specification:FreeSans"
       sodipodi:linespacing="125%"
       y="13.86772"><tspan
         x="0"
         y="54.667721"
         id="tspan3004"
         style="font-size:40px;font-style:normal;font-variant:normal;font-weight:normal;font-stretch:normal;text-align:start;line-height:125%;writing-mode:lr-tb;text-anchor:start;font-family:FreeSans;-inkscape-font-specification:FreeSans">TNTNET</tspan></text>
</g><g
     transform="matrix(1 0 0 1 0 0)"
     type="LAYER"
     name="untitled layer"
     id="g3006" /><g
     transform="matrix(1 0 0 1 0 0)"
     type="LAYER"
     name="untitled layer"
     id="g3008" /></svg>